<?xml version="1.0" encoding="UTF-8" standalone="no"?><!DOCTYPE svg PUBLIC "-//W3C//DTD SVG 1.1//EN" "http://www.w3.org/Graphics/SVG/1.1/DTD/svg11.dtd"><svg width="100%" height="100%" viewBox="0 0 2400 2400" version="1.1" xmlns="http://www.w3.org/2000/svg" xmlns:xlink="http://www.w3.org/1999/xlink" xml:space="preserve" xmlns:serif="http://www.serif.com/" style="fill-rule:evenodd;clip-rule:evenodd;stroke-linecap:round;stroke-linejoin:round;stroke-miterlimit:1.5;"><path d="M1017.491,669.597l21.95,-12.379l25.131,-8.01l30.857,-6.189l39.128,-12.743l603.527,-162.247l14.951,-2.913l10.816,2.184l9.225,2.549l7.317,3.641l7.635,8.01l6.362,8.738l5.408,11.651l0,21.481l0.636,13.107l0.709,1030.14l-3.743,24.661l-1.909,11.287l-2.863,10.922l-4.454,11.287l-7.635,17.476l-4.135,11.287l-7.635,11.287l-10.816,17.112l-6.044,10.194l-13.679,14.199l-13.997,13.471l-9.225,9.102l-13.361,12.015l-12.068,6.644l-14.912,9.671l-32.308,12.515l-34.297,10.809l-16.403,2.276l-22.864,3.413l-23.231,-1.087l-20.041,1.82l-27.676,-2.913l-19.723,-2.913l-29.267,-11.651l-23.859,-9.102l-16.224,-6.918l-20.996,-14.927l-27.358,-24.758l-11.134,-13.835l-16.86,-18.932l-11.452,-18.932l-12.088,-23.665l-13.043,-40.049l-3.181,-27.306l-0.954,-34.588l5.09,-30.219l4.772,-24.758l8.907,-27.67l7.635,-12.743l9.225,-12.743l9.862,-17.112l10.18,-14.199l13.997,-15.656l15.269,-14.563l15.269,-9.83l10.498,-7.646l7.635,-6.553l6.999,-5.461l8.589,-4.369l3.499,-3.641l2.545,-3.277l-8.271,-0.728l-6.999,-0.364l-14.951,-0.364l-14.951,1.456l-6.362,0l-14.633,2.184l-10.18,0.364l-16.542,6.918l-12.406,1.456l-15.906,7.646l-16.224,5.825l-18.451,11.651l-17.258,12.106l-9.941,8.647l-12.725,11.833l-15.11,15.473l-7.953,12.288l-11.929,13.198l-8.351,14.563l-11.929,20.935l-7.953,14.563l-12.327,32.312l-7.158,20.935l-8.351,31.857l-6.76,18.659l-0.795,23.21l-7.555,26.396l-6.76,32.767l-6.362,32.767l-5.965,32.767l-8.748,28.216l-22.268,45.51l-28.63,36.408l-18.292,15.929l-34.993,31.402l-31.414,13.653l-36.981,18.204l-44.138,7.282l-52.887,0.91l-41.355,-4.551l-27.437,-7.737l-26.244,-13.198l-28.233,-16.384l-24.654,-21.845l-28.63,-28.671l-23.063,-31.402l-22.666,-51.882l-8.748,-32.312l-2.386,-39.594l2.386,-16.839l10.339,-53.247l9.146,-20.935l9.543,-23.665l11.532,-18.204l18.292,-16.839l12.725,-13.653l24.654,-21.845l19.485,-14.108l27.04,-14.108l22.268,-10.012l21.87,-4.551l21.075,-3.186l33.402,-2.731l31.414,-0.455l34.595,4.551l45.331,10.012l17.099,7.737l20.28,11.833l10.339,6.371l5.169,-1.365l-1.193,-10.012l-0.795,-782.32l2.784,-8.647l3.579,-9.557l6.279,-11.936Z" style="stroke:#260072;stroke-width:1px;"/></svg>