<?xml version="1.0" encoding="UTF-8" standalone="no"?>
<!DOCTYPE svg PUBLIC "-//W3C//DTD SVG 1.1//EN" "http://www.w3.org/Graphics/SVG/1.1/DTD/svg11.dtd">
<svg width="100%" height="100%" viewBox="0 0 2400 2400" version="1.1" xmlns="http://www.w3.org/2000/svg" xmlns:xlink="http://www.w3.org/1999/xlink" xml:space="preserve" xmlns:serif="http://www.serif.com/" style="fill-rule:evenodd;clip-rule:evenodd;stroke-linecap:round;stroke-linejoin:round;stroke-miterlimit:1.5;">
    <g transform="matrix(2.456235,0,0,2.811159,-1719.494269,-2197.893261)">
        <path d="M1114.301,1020.039L1123.237,1015.635L1133.469,1012.786L1146.032,1010.584L1161.962,1006.051L1407.674,948.336L1413.761,947.3L1418.164,948.077L1421.92,948.983L1424.899,950.278L1428.007,953.128L1430.598,956.236L1432.799,960.38L1432.799,968.022L1433.058,972.684L1433.347,1339.131L1431.823,1347.903L1431.046,1351.918L1429.881,1355.804L1428.068,1359.818L1424.959,1366.035L1423.276,1370.05L1420.167,1374.065L1415.764,1380.152L1413.303,1383.778L1407.734,1388.829L1402.035,1393.621L1398.28,1396.859L1392.84,1401.133L1387.927,1403.497L1381.856,1406.937L1368.702,1411.389L1354.739,1415.234L1348.061,1416.043L1338.752,1417.257L1329.294,1416.871L1321.135,1417.518L1309.867,1416.482L1301.837,1415.446L1289.922,1411.302L1280.209,1408.064L1273.603,1405.603L1265.056,1400.293L1253.917,1391.486L1249.385,1386.565L1242.52,1379.83L1237.858,1373.095L1232.936,1364.677L1227.626,1350.431L1226.331,1340.717L1225.943,1328.413L1228.015,1317.664L1229.958,1308.857L1233.584,1299.014L1236.692,1294.481L1240.448,1289.948L1244.463,1283.861L1248.607,1278.81L1254.306,1273.241L1260.523,1268.06L1266.739,1264.564L1271.013,1261.844L1274.122,1259.513L1276.971,1257.57L1280.468,1256.016L1281.892,1254.721L1282.928,1253.555L1279.561,1253.296L1276.712,1253.166L1270.625,1253.037L1264.538,1253.555L1261.947,1253.555L1255.99,1254.332L1251.845,1254.462L1245.111,1256.922L1240.06,1257.44L1233.584,1260.16L1226.979,1262.232L1219.467,1266.377L1212.441,1270.683L1208.394,1273.759L1203.213,1277.968L1197.061,1283.472L1193.823,1287.844L1188.967,1292.538L1185.567,1297.719L1180.71,1305.166L1177.472,1310.346L1172.454,1321.841L1169.54,1329.288L1166.14,1340.62L1163.388,1347.258L1163.064,1355.514L1159.988,1364.904L1157.236,1376.56L1154.646,1388.216L1152.217,1399.872L1148.656,1409.909L1139.59,1426.099L1127.934,1439.05L1120.487,1444.716L1106.24,1455.887L1093.451,1460.743L1078.395,1467.219L1060.425,1469.809L1038.894,1470.133L1022.057,1468.514L1010.886,1465.762L1000.202,1461.067L988.707,1455.239L978.67,1447.468L967.014,1437.269L957.624,1426.099L948.396,1407.643L944.835,1396.149L943.863,1382.064L944.835,1376.074L949.044,1357.133L952.767,1349.686L956.653,1341.268L961.348,1334.792L968.795,1328.802L973.975,1323.945L984.012,1316.174L991.945,1311.156L1002.954,1306.137L1012.02,1302.576L1020.924,1300.957L1029.504,1299.823L1043.103,1298.852L1055.892,1298.69L1069.977,1300.309L1088.432,1303.871L1095.394,1306.623L1103.65,1310.832L1107.859,1313.099L1109.964,1312.613L1109.478,1309.051L1109.154,1030.76L1110.288,1027.684L1111.745,1024.285L1114.301,1020.039Z" style="fill:white;stroke:rgb(38,0,114);stroke-width:0.38px;"/>
    </g>
</svg>
